<mxfile host="Electron" modified="2023-06-16T16:25:52.708Z" agent="Mozilla/5.0 (Windows NT 10.0; Win64; x64) AppleWebKit/537.36 (KHTML, like Gecko) draw.io/21.4.0 Chrome/112.0.5615.204 Electron/24.5.1 Safari/537.36" etag="EPNd0CzA7Z50vOLU67Cm" version="21.4.0" type="device">
  <diagram id="TzNOMUvdR3a_tbd5d7di" name="第 1 页">
    <mxGraphModel dx="1536" dy="1380" grid="1" gridSize="10" guides="1" tooltips="1" connect="1" arrows="1" fold="1" page="1" pageScale="1" pageWidth="827" pageHeight="1169" math="0" shadow="0">
      <root>
        <mxCell id="0" />
        <mxCell id="1" parent="0" />
        <mxCell id="-_qQglWvZCDNXZgyJJdr-1" value="" style="rounded=0;whiteSpace=wrap;html=1;fontFamily=Times New Roman;fontSize=30;strokeWidth=2;" parent="1" vertex="1">
          <mxGeometry x="1741" y="186.21" width="445" height="230" as="geometry" />
        </mxCell>
        <mxCell id="-_qQglWvZCDNXZgyJJdr-30" value="" style="rounded=0;whiteSpace=wrap;html=1;fontFamily=Times New Roman;fontSize=22;strokeColor=#d79b00;strokeWidth=2;fillColor=#ffe6cc;container=0;" parent="1" vertex="1">
          <mxGeometry x="1862" y="373.46000000000004" width="52" height="23" as="geometry" />
        </mxCell>
        <mxCell id="-_qQglWvZCDNXZgyJJdr-32" value="" style="rounded=0;whiteSpace=wrap;html=1;fontFamily=Times New Roman;fontSize=22;strokeColor=#d79b00;strokeWidth=2;fillColor=#ffe6cc;container=0;" parent="1" vertex="1">
          <mxGeometry x="1945" y="373.46000000000004" width="52" height="23" as="geometry" />
        </mxCell>
        <mxCell id="-_qQglWvZCDNXZgyJJdr-33" value="" style="rounded=0;whiteSpace=wrap;html=1;fontFamily=Times New Roman;fontSize=22;strokeColor=#d79b00;strokeWidth=2;fillColor=#ffe6cc;container=0;" parent="1" vertex="1">
          <mxGeometry x="2023" y="373.46000000000004" width="52" height="23" as="geometry" />
        </mxCell>
        <mxCell id="-_qQglWvZCDNXZgyJJdr-34" value="" style="rounded=0;whiteSpace=wrap;html=1;fontFamily=Times New Roman;fontSize=22;strokeColor=#d79b00;strokeWidth=2;fillColor=#ffe6cc;container=0;" parent="1" vertex="1">
          <mxGeometry x="2105" y="373.46000000000004" width="52" height="23" as="geometry" />
        </mxCell>
        <mxCell id="-_qQglWvZCDNXZgyJJdr-37" value="" style="rounded=0;whiteSpace=wrap;html=1;fontFamily=Times New Roman;fontSize=22;strokeColor=none;strokeWidth=2;fillColor=#CCCCCC;container=0;" parent="1" vertex="1">
          <mxGeometry x="1862" y="313.46000000000004" width="52" height="23" as="geometry" />
        </mxCell>
        <mxCell id="-_qQglWvZCDNXZgyJJdr-56" value="&lt;p style=&quot;line-height: 40%;&quot;&gt;&lt;font face=&quot;Times New Roman&quot; size=&quot;1&quot;&gt;&lt;b style=&quot;font-size: 17px;&quot;&gt;Transformer Layers&lt;/b&gt;&lt;/font&gt;&lt;/p&gt;" style="text;html=1;strokeColor=none;fillColor=none;align=center;verticalAlign=middle;whiteSpace=wrap;rounded=0;fontSize=24;" parent="1" vertex="1">
          <mxGeometry x="1761" y="299.21000000000004" width="85" height="51.5" as="geometry" />
        </mxCell>
        <mxCell id="-_qQglWvZCDNXZgyJJdr-57" value="&lt;p style=&quot;line-height: 40%; font-size: 30px;&quot;&gt;&lt;font face=&quot;Times New Roman&quot; style=&quot;font-size: 30px;&quot;&gt;&lt;b style=&quot;font-size: 30px;&quot;&gt;Pangu-coder/StarCoder&lt;/b&gt;&lt;/font&gt;&lt;/p&gt;" style="text;html=1;strokeColor=none;fillColor=none;align=center;verticalAlign=middle;whiteSpace=wrap;rounded=0;fontSize=30;" parent="1" vertex="1">
          <mxGeometry x="1797" y="198.20999999999998" width="360" height="37" as="geometry" />
        </mxCell>
        <mxCell id="-_qQglWvZCDNXZgyJJdr-70" value="" style="rounded=0;whiteSpace=wrap;html=1;fontFamily=Times New Roman;fontSize=22;strokeColor=none;strokeWidth=2;fillColor=#CCCCCC;container=0;" parent="1" vertex="1">
          <mxGeometry x="1945" y="313.46000000000004" width="52" height="23" as="geometry" />
        </mxCell>
        <mxCell id="-_qQglWvZCDNXZgyJJdr-71" value="" style="rounded=0;whiteSpace=wrap;html=1;fontFamily=Times New Roman;fontSize=22;strokeColor=none;strokeWidth=2;fillColor=#CCCCCC;container=0;" parent="1" vertex="1">
          <mxGeometry x="2023" y="313.46000000000004" width="52" height="23" as="geometry" />
        </mxCell>
        <mxCell id="-_qQglWvZCDNXZgyJJdr-72" value="" style="rounded=0;whiteSpace=wrap;html=1;fontFamily=Times New Roman;fontSize=22;strokeColor=none;strokeWidth=2;fillColor=#CCCCCC;container=0;" parent="1" vertex="1">
          <mxGeometry x="2105" y="313.46000000000004" width="52" height="23" as="geometry" />
        </mxCell>
        <mxCell id="-_qQglWvZCDNXZgyJJdr-73" value="" style="rounded=0;whiteSpace=wrap;html=1;fontFamily=Times New Roman;fontSize=22;strokeColor=none;strokeWidth=2;fillColor=#CCCCCC;container=0;" parent="1" vertex="1">
          <mxGeometry x="2105" y="253.46" width="52" height="23" as="geometry" />
        </mxCell>
        <mxCell id="-_qQglWvZCDNXZgyJJdr-74" value="" style="rounded=0;whiteSpace=wrap;html=1;fontFamily=Times New Roman;fontSize=22;strokeColor=none;strokeWidth=2;fillColor=#CCCCCC;container=0;" parent="1" vertex="1">
          <mxGeometry x="2023" y="253.46" width="52" height="23" as="geometry" />
        </mxCell>
        <mxCell id="-_qQglWvZCDNXZgyJJdr-75" value="" style="rounded=0;whiteSpace=wrap;html=1;fontFamily=Times New Roman;fontSize=22;strokeColor=none;strokeWidth=2;fillColor=#CCCCCC;container=0;" parent="1" vertex="1">
          <mxGeometry x="1945" y="253.46" width="52" height="23" as="geometry" />
        </mxCell>
        <mxCell id="-_qQglWvZCDNXZgyJJdr-76" value="" style="rounded=0;whiteSpace=wrap;html=1;fontFamily=Times New Roman;fontSize=22;strokeColor=none;strokeWidth=2;fillColor=#CCCCCC;container=0;" parent="1" vertex="1">
          <mxGeometry x="1862" y="253.46" width="52" height="23" as="geometry" />
        </mxCell>
        <mxCell id="-_qQglWvZCDNXZgyJJdr-77" value="" style="endArrow=none;html=1;rounded=0;exitX=0.5;exitY=0;exitDx=0;exitDy=0;entryX=0.5;entryY=1;entryDx=0;entryDy=0;" parent="1" source="-_qQglWvZCDNXZgyJJdr-30" target="-_qQglWvZCDNXZgyJJdr-37" edge="1">
          <mxGeometry width="50" height="50" relative="1" as="geometry">
            <mxPoint x="2085" y="333.46000000000004" as="sourcePoint" />
            <mxPoint x="2135" y="283.46000000000004" as="targetPoint" />
          </mxGeometry>
        </mxCell>
        <mxCell id="-_qQglWvZCDNXZgyJJdr-78" value="" style="endArrow=none;html=1;rounded=0;exitX=0.5;exitY=0;exitDx=0;exitDy=0;entryX=0.5;entryY=1;entryDx=0;entryDy=0;" parent="1" source="-_qQglWvZCDNXZgyJJdr-30" target="-_qQglWvZCDNXZgyJJdr-70" edge="1">
          <mxGeometry width="50" height="50" relative="1" as="geometry">
            <mxPoint x="2085" y="333.46000000000004" as="sourcePoint" />
            <mxPoint x="2135" y="283.46000000000004" as="targetPoint" />
          </mxGeometry>
        </mxCell>
        <mxCell id="-_qQglWvZCDNXZgyJJdr-79" value="" style="endArrow=none;html=1;rounded=0;exitX=0.5;exitY=0;exitDx=0;exitDy=0;entryX=0.5;entryY=1;entryDx=0;entryDy=0;" parent="1" source="-_qQglWvZCDNXZgyJJdr-30" target="-_qQglWvZCDNXZgyJJdr-71" edge="1">
          <mxGeometry width="50" height="50" relative="1" as="geometry">
            <mxPoint x="2085" y="333.46000000000004" as="sourcePoint" />
            <mxPoint x="2135" y="283.46000000000004" as="targetPoint" />
          </mxGeometry>
        </mxCell>
        <mxCell id="-_qQglWvZCDNXZgyJJdr-80" value="" style="endArrow=none;html=1;rounded=0;exitX=0.5;exitY=0;exitDx=0;exitDy=0;entryX=0.5;entryY=1;entryDx=0;entryDy=0;" parent="1" source="-_qQglWvZCDNXZgyJJdr-30" target="-_qQglWvZCDNXZgyJJdr-72" edge="1">
          <mxGeometry width="50" height="50" relative="1" as="geometry">
            <mxPoint x="2085" y="333.46000000000004" as="sourcePoint" />
            <mxPoint x="2135" y="283.46000000000004" as="targetPoint" />
          </mxGeometry>
        </mxCell>
        <mxCell id="-_qQglWvZCDNXZgyJJdr-81" value="" style="endArrow=none;html=1;rounded=0;exitX=0.5;exitY=0;exitDx=0;exitDy=0;entryX=0.5;entryY=1;entryDx=0;entryDy=0;" parent="1" source="-_qQglWvZCDNXZgyJJdr-32" target="-_qQglWvZCDNXZgyJJdr-70" edge="1">
          <mxGeometry width="50" height="50" relative="1" as="geometry">
            <mxPoint x="2025" y="383.46000000000004" as="sourcePoint" />
            <mxPoint x="2075" y="333.46000000000004" as="targetPoint" />
          </mxGeometry>
        </mxCell>
        <mxCell id="-_qQglWvZCDNXZgyJJdr-82" value="" style="endArrow=none;html=1;rounded=0;exitX=0.5;exitY=0;exitDx=0;exitDy=0;entryX=0.5;entryY=1;entryDx=0;entryDy=0;" parent="1" source="-_qQglWvZCDNXZgyJJdr-32" target="-_qQglWvZCDNXZgyJJdr-71" edge="1">
          <mxGeometry width="50" height="50" relative="1" as="geometry">
            <mxPoint x="2025" y="383.46000000000004" as="sourcePoint" />
            <mxPoint x="2075" y="333.46000000000004" as="targetPoint" />
          </mxGeometry>
        </mxCell>
        <mxCell id="-_qQglWvZCDNXZgyJJdr-83" value="" style="endArrow=none;html=1;rounded=0;exitX=0.5;exitY=0;exitDx=0;exitDy=0;entryX=0.5;entryY=1;entryDx=0;entryDy=0;" parent="1" source="-_qQglWvZCDNXZgyJJdr-32" target="-_qQglWvZCDNXZgyJJdr-72" edge="1">
          <mxGeometry width="50" height="50" relative="1" as="geometry">
            <mxPoint x="2025" y="383.46000000000004" as="sourcePoint" />
            <mxPoint x="2075" y="333.46000000000004" as="targetPoint" />
          </mxGeometry>
        </mxCell>
        <mxCell id="-_qQglWvZCDNXZgyJJdr-84" value="" style="endArrow=none;html=1;rounded=0;exitX=0.5;exitY=0;exitDx=0;exitDy=0;entryX=0.5;entryY=1;entryDx=0;entryDy=0;" parent="1" source="-_qQglWvZCDNXZgyJJdr-33" target="-_qQglWvZCDNXZgyJJdr-71" edge="1">
          <mxGeometry width="50" height="50" relative="1" as="geometry">
            <mxPoint x="2025" y="383.46000000000004" as="sourcePoint" />
            <mxPoint x="2075" y="333.46000000000004" as="targetPoint" />
          </mxGeometry>
        </mxCell>
        <mxCell id="-_qQglWvZCDNXZgyJJdr-85" value="" style="endArrow=none;html=1;rounded=0;exitX=0.5;exitY=0;exitDx=0;exitDy=0;entryX=0.5;entryY=1;entryDx=0;entryDy=0;" parent="1" source="-_qQglWvZCDNXZgyJJdr-33" target="-_qQglWvZCDNXZgyJJdr-72" edge="1">
          <mxGeometry width="50" height="50" relative="1" as="geometry">
            <mxPoint x="2025" y="383.46000000000004" as="sourcePoint" />
            <mxPoint x="2075" y="333.46000000000004" as="targetPoint" />
          </mxGeometry>
        </mxCell>
        <mxCell id="-_qQglWvZCDNXZgyJJdr-86" value="" style="endArrow=none;html=1;rounded=0;exitX=0.5;exitY=0;exitDx=0;exitDy=0;entryX=0.5;entryY=1;entryDx=0;entryDy=0;" parent="1" source="-_qQglWvZCDNXZgyJJdr-34" target="-_qQglWvZCDNXZgyJJdr-72" edge="1">
          <mxGeometry width="50" height="50" relative="1" as="geometry">
            <mxPoint x="2025" y="383.46000000000004" as="sourcePoint" />
            <mxPoint x="2075" y="333.46000000000004" as="targetPoint" />
          </mxGeometry>
        </mxCell>
        <mxCell id="-_qQglWvZCDNXZgyJJdr-87" value="" style="endArrow=none;html=1;rounded=0;exitX=0.5;exitY=0;exitDx=0;exitDy=0;entryX=0.5;entryY=1;entryDx=0;entryDy=0;fillColor=#f5f5f5;strokeColor=#CCCCCC;" parent="1" source="-_qQglWvZCDNXZgyJJdr-37" target="-_qQglWvZCDNXZgyJJdr-76" edge="1">
          <mxGeometry width="50" height="50" relative="1" as="geometry">
            <mxPoint x="2025" y="383.46000000000004" as="sourcePoint" />
            <mxPoint x="2075" y="333.46000000000004" as="targetPoint" />
          </mxGeometry>
        </mxCell>
        <mxCell id="-_qQglWvZCDNXZgyJJdr-88" value="" style="endArrow=none;html=1;rounded=0;exitX=0.5;exitY=0;exitDx=0;exitDy=0;entryX=0.5;entryY=1;entryDx=0;entryDy=0;fillColor=#f5f5f5;strokeColor=#CCCCCC;" parent="1" source="-_qQglWvZCDNXZgyJJdr-37" target="-_qQglWvZCDNXZgyJJdr-75" edge="1">
          <mxGeometry width="50" height="50" relative="1" as="geometry">
            <mxPoint x="1898" y="323.46000000000004" as="sourcePoint" />
            <mxPoint x="1898" y="286.46000000000004" as="targetPoint" />
          </mxGeometry>
        </mxCell>
        <mxCell id="-_qQglWvZCDNXZgyJJdr-89" value="" style="endArrow=none;html=1;rounded=0;exitX=0.5;exitY=0;exitDx=0;exitDy=0;entryX=0.5;entryY=1;entryDx=0;entryDy=0;fillColor=#f5f5f5;strokeColor=#CCCCCC;" parent="1" source="-_qQglWvZCDNXZgyJJdr-37" target="-_qQglWvZCDNXZgyJJdr-74" edge="1">
          <mxGeometry width="50" height="50" relative="1" as="geometry">
            <mxPoint x="1898" y="323.46000000000004" as="sourcePoint" />
            <mxPoint x="1981" y="286.46000000000004" as="targetPoint" />
          </mxGeometry>
        </mxCell>
        <mxCell id="-_qQglWvZCDNXZgyJJdr-90" value="" style="endArrow=none;html=1;rounded=0;exitX=0.5;exitY=0;exitDx=0;exitDy=0;entryX=0.5;entryY=1;entryDx=0;entryDy=0;fillColor=#f5f5f5;strokeColor=#CCCCCC;" parent="1" source="-_qQglWvZCDNXZgyJJdr-37" target="-_qQglWvZCDNXZgyJJdr-73" edge="1">
          <mxGeometry width="50" height="50" relative="1" as="geometry">
            <mxPoint x="1898" y="323.46000000000004" as="sourcePoint" />
            <mxPoint x="2059" y="286.46000000000004" as="targetPoint" />
          </mxGeometry>
        </mxCell>
        <mxCell id="-_qQglWvZCDNXZgyJJdr-91" value="" style="endArrow=none;html=1;rounded=0;exitX=0.5;exitY=0;exitDx=0;exitDy=0;entryX=0.5;entryY=1;entryDx=0;entryDy=0;fillColor=#f5f5f5;strokeColor=#CCCCCC;" parent="1" source="-_qQglWvZCDNXZgyJJdr-70" target="-_qQglWvZCDNXZgyJJdr-75" edge="1">
          <mxGeometry width="50" height="50" relative="1" as="geometry">
            <mxPoint x="1898" y="323.46000000000004" as="sourcePoint" />
            <mxPoint x="2141" y="286.46000000000004" as="targetPoint" />
          </mxGeometry>
        </mxCell>
        <mxCell id="-_qQglWvZCDNXZgyJJdr-92" value="" style="endArrow=none;html=1;rounded=0;exitX=0.5;exitY=0;exitDx=0;exitDy=0;entryX=0.5;entryY=1;entryDx=0;entryDy=0;fillColor=#f5f5f5;strokeColor=#CCCCCC;" parent="1" source="-_qQglWvZCDNXZgyJJdr-70" target="-_qQglWvZCDNXZgyJJdr-74" edge="1">
          <mxGeometry width="50" height="50" relative="1" as="geometry">
            <mxPoint x="1908" y="333.46000000000004" as="sourcePoint" />
            <mxPoint x="2151" y="296.46000000000004" as="targetPoint" />
          </mxGeometry>
        </mxCell>
        <mxCell id="-_qQglWvZCDNXZgyJJdr-93" value="" style="endArrow=none;html=1;rounded=0;exitX=0.5;exitY=0;exitDx=0;exitDy=0;entryX=0.5;entryY=1;entryDx=0;entryDy=0;fillColor=#f5f5f5;strokeColor=#CCCCCC;" parent="1" source="-_qQglWvZCDNXZgyJJdr-70" target="-_qQglWvZCDNXZgyJJdr-73" edge="1">
          <mxGeometry width="50" height="50" relative="1" as="geometry">
            <mxPoint x="1918" y="343.46000000000004" as="sourcePoint" />
            <mxPoint x="2161" y="306.46000000000004" as="targetPoint" />
          </mxGeometry>
        </mxCell>
        <mxCell id="-_qQglWvZCDNXZgyJJdr-94" value="" style="endArrow=none;html=1;rounded=0;exitX=0.5;exitY=0;exitDx=0;exitDy=0;entryX=0.5;entryY=1;entryDx=0;entryDy=0;fillColor=#f5f5f5;strokeColor=#CCCCCC;" parent="1" source="-_qQglWvZCDNXZgyJJdr-71" target="-_qQglWvZCDNXZgyJJdr-74" edge="1">
          <mxGeometry width="50" height="50" relative="1" as="geometry">
            <mxPoint x="1928" y="353.46000000000004" as="sourcePoint" />
            <mxPoint x="2171" y="316.46000000000004" as="targetPoint" />
          </mxGeometry>
        </mxCell>
        <mxCell id="-_qQglWvZCDNXZgyJJdr-95" value="" style="endArrow=none;html=1;rounded=0;exitX=0.5;exitY=0;exitDx=0;exitDy=0;entryX=0.5;entryY=1;entryDx=0;entryDy=0;fillColor=#f5f5f5;strokeColor=#CCCCCC;" parent="1" source="-_qQglWvZCDNXZgyJJdr-71" target="-_qQglWvZCDNXZgyJJdr-73" edge="1">
          <mxGeometry width="50" height="50" relative="1" as="geometry">
            <mxPoint x="1938" y="363.46000000000004" as="sourcePoint" />
            <mxPoint x="2181" y="326.46000000000004" as="targetPoint" />
          </mxGeometry>
        </mxCell>
        <mxCell id="-_qQglWvZCDNXZgyJJdr-96" value="" style="endArrow=none;html=1;rounded=0;exitX=0.5;exitY=0;exitDx=0;exitDy=0;entryX=0.5;entryY=1;entryDx=0;entryDy=0;fillColor=#f5f5f5;strokeColor=#CCCCCC;" parent="1" source="-_qQglWvZCDNXZgyJJdr-72" target="-_qQglWvZCDNXZgyJJdr-73" edge="1">
          <mxGeometry width="50" height="50" relative="1" as="geometry">
            <mxPoint x="1948" y="373.46000000000004" as="sourcePoint" />
            <mxPoint x="2191" y="336.46000000000004" as="targetPoint" />
          </mxGeometry>
        </mxCell>
        <mxCell id="LL2xIqkjGdLYfV9IT-Gz-2" value="&lt;font face=&quot;Times New Roman&quot; style=&quot;font-size: 34px;&quot;&gt;&lt;b style=&quot;font-size: 34px;&quot;&gt;Commit&lt;/b&gt;&lt;/font&gt;" style="text;html=1;strokeColor=none;fillColor=none;align=center;verticalAlign=middle;whiteSpace=wrap;rounded=0;fontSize=34;" parent="1" vertex="1">
          <mxGeometry x="1181" y="356.46000000000004" width="140" height="40" as="geometry" />
        </mxCell>
        <mxCell id="LL2xIqkjGdLYfV9IT-Gz-3" value="" style="shape=image;verticalLabelPosition=bottom;labelBackgroundColor=default;verticalAlign=top;aspect=fixed;imageAspect=0;image=data:image/svg+xml,PHN2ZyB4bWxucz0iaHR0cDovL3d3dy53My5vcmcvMjAwMC9zdmciIHhtbG5zOnhsaW5rPSJodHRwOi8vd3d3LnczLm9yZy8xOTk5L3hsaW5rIiB0PSIxNjgyMDgyNjk1NTUyIiBjbGFzcz0iaWNvbiIgdmlld0JveD0iMCAwIDEwMjQgMTAyNCIgdmVyc2lvbj0iMS4xIiBwLWlkPSIxNDkxMyIgd2lkdGg9IjIwMCIgaGVpZ2h0PSIyMDAiPjxwYXRoIGQ9Ik01MTEuNiA3Ni4zQzI2NC4zIDc2LjIgNjQgMjc2LjQgNjQgNTIzLjUgNjQgNzE4LjkgMTg5LjMgODg1IDM2My44IDk0NmMyMy41IDUuOSAxOS45LTEwLjggMTkuOS0yMi4ydi03Ny41Yy0xMzUuNyAxNS45LTE0MS4yLTczLjktMTUwLjMtODguOUMyMTUgNzI2IDE3MS41IDcxOCAxODQuNSA3MDNjMzAuOS0xNS45IDYyLjQgNCA5OC45IDU3LjkgMjYuNCAzOS4xIDc3LjkgMzIuNSAxMDQgMjYgNS43LTIzLjUgMTcuOS00NC41IDM0LjctNjAuOC0xNDAuNi0yNS4yLTE5OS4yLTExMS0xOTkuMi0yMTMgMC00OS41IDE2LjMtOTUgNDguMy0xMzEuNy0yMC40LTYwLjUgMS45LTExMi4zIDQuOS0xMjAgNTguMS01LjIgMTE4LjUgNDEuNiAxMjMuMiA0NS4zIDMzLTguOSA3MC43LTEzLjYgMTEyLjktMTMuNiA0Mi40IDAgODAuMiA0LjkgMTEzLjUgMTMuOSAxMS4zLTguNiA2Ny4zLTQ4LjggMTIxLjMtNDMuOSAyLjkgNy43IDI0LjcgNTguMyA1LjUgMTE4IDMyLjQgMzYuOCA0OC45IDgyLjcgNDguOSAxMzIuMyAwIDEwMi4yLTU5IDE4OC4xLTIwMCAyMTIuOSAyMy41IDIzLjIgMzguMSA1NS40IDM4LjEgOTF2MTEyLjVjMC44IDkgMCAxNy45IDE1IDE3LjkgMTc3LjEtNTkuNyAzMDQuNi0yMjcgMzA0LjYtNDI0LjEgMC0yNDcuMi0yMDAuNC00NDcuMy00NDcuNS00NDcuM3oiIHAtaWQ9IjE0OTE0IiBmaWxsPSIjMDAwMDAwIi8+PC9zdmc+;" parent="1" vertex="1">
          <mxGeometry x="1197" y="233.46" width="104" height="104" as="geometry" />
        </mxCell>
        <mxCell id="LL2xIqkjGdLYfV9IT-Gz-4" value="" style="rounded=0;whiteSpace=wrap;html=1;fontFamily=Times New Roman;fontSize=30;strokeWidth=2;" parent="1" vertex="1">
          <mxGeometry x="1150" y="480.63" width="1330" height="260" as="geometry" />
        </mxCell>
        <mxCell id="LL2xIqkjGdLYfV9IT-Gz-5" value="&lt;font face=&quot;Times New Roman&quot; size=&quot;1&quot;&gt;&lt;b style=&quot;font-size: 20px&quot;&gt;Before&lt;/b&gt;&lt;/font&gt;" style="text;html=1;strokeColor=none;fillColor=none;align=center;verticalAlign=middle;whiteSpace=wrap;rounded=0;fontSize=24;" parent="1" vertex="1">
          <mxGeometry x="1332" y="544.5699999999999" width="60" height="30" as="geometry" />
        </mxCell>
        <mxCell id="LL2xIqkjGdLYfV9IT-Gz-6" style="edgeStyle=none;rounded=0;orthogonalLoop=1;jettySize=auto;html=1;exitX=0.5;exitY=0;exitDx=0;exitDy=0;fontFamily=Times New Roman;fontSize=24;" parent="1" edge="1">
          <mxGeometry relative="1" as="geometry">
            <mxPoint x="1557.0000000000002" y="603.5699999999999" as="sourcePoint" />
            <mxPoint x="1557.0000000000002" y="603.5699999999999" as="targetPoint" />
          </mxGeometry>
        </mxCell>
        <mxCell id="LL2xIqkjGdLYfV9IT-Gz-7" value="" style="group" parent="1" vertex="1" connectable="0">
          <mxGeometry x="1502" y="528.5699999999999" width="110" height="60" as="geometry" />
        </mxCell>
        <mxCell id="LL2xIqkjGdLYfV9IT-Gz-8" value="" style="ellipse;whiteSpace=wrap;html=1;aspect=fixed;fillColor=#dae8fc;strokeColor=#6c8ebf;" parent="LL2xIqkjGdLYfV9IT-Gz-7" vertex="1">
          <mxGeometry x="30" width="20" height="20" as="geometry" />
        </mxCell>
        <mxCell id="LL2xIqkjGdLYfV9IT-Gz-9" value="" style="ellipse;whiteSpace=wrap;html=1;aspect=fixed;fillColor=#dae8fc;strokeColor=#6c8ebf;" parent="LL2xIqkjGdLYfV9IT-Gz-7" vertex="1">
          <mxGeometry y="20" width="20" height="20" as="geometry" />
        </mxCell>
        <mxCell id="LL2xIqkjGdLYfV9IT-Gz-10" style="rounded=0;orthogonalLoop=1;jettySize=auto;html=1;exitX=0;exitY=1;exitDx=0;exitDy=0;entryX=1;entryY=0;entryDx=0;entryDy=0;fontSize=30;fillColor=#dae8fc;strokeColor=#6c8ebf;" parent="LL2xIqkjGdLYfV9IT-Gz-7" source="LL2xIqkjGdLYfV9IT-Gz-8" target="LL2xIqkjGdLYfV9IT-Gz-9" edge="1">
          <mxGeometry relative="1" as="geometry" />
        </mxCell>
        <mxCell id="LL2xIqkjGdLYfV9IT-Gz-11" value="" style="ellipse;whiteSpace=wrap;html=1;aspect=fixed;fillColor=#dae8fc;strokeColor=#6c8ebf;" parent="LL2xIqkjGdLYfV9IT-Gz-7" vertex="1">
          <mxGeometry x="60" y="20" width="20" height="20" as="geometry" />
        </mxCell>
        <mxCell id="LL2xIqkjGdLYfV9IT-Gz-12" style="edgeStyle=none;rounded=0;orthogonalLoop=1;jettySize=auto;html=1;exitX=1;exitY=1;exitDx=0;exitDy=0;entryX=0;entryY=0;entryDx=0;entryDy=0;fontSize=30;fillColor=#dae8fc;strokeColor=#6c8ebf;" parent="LL2xIqkjGdLYfV9IT-Gz-7" source="LL2xIqkjGdLYfV9IT-Gz-8" target="LL2xIqkjGdLYfV9IT-Gz-11" edge="1">
          <mxGeometry relative="1" as="geometry" />
        </mxCell>
        <mxCell id="LL2xIqkjGdLYfV9IT-Gz-13" value="" style="ellipse;whiteSpace=wrap;html=1;aspect=fixed;dashed=1;fillColor=#f8cecc;strokeColor=#b85450;" parent="LL2xIqkjGdLYfV9IT-Gz-7" vertex="1">
          <mxGeometry x="30" y="40" width="20" height="20" as="geometry" />
        </mxCell>
        <mxCell id="LL2xIqkjGdLYfV9IT-Gz-14" style="edgeStyle=none;rounded=0;orthogonalLoop=1;jettySize=auto;html=1;exitX=0;exitY=1;exitDx=0;exitDy=0;entryX=1;entryY=0;entryDx=0;entryDy=0;fontSize=30;fillColor=#dae8fc;strokeColor=#6c8ebf;" parent="LL2xIqkjGdLYfV9IT-Gz-7" source="LL2xIqkjGdLYfV9IT-Gz-11" target="LL2xIqkjGdLYfV9IT-Gz-13" edge="1">
          <mxGeometry relative="1" as="geometry" />
        </mxCell>
        <mxCell id="LL2xIqkjGdLYfV9IT-Gz-15" value="" style="ellipse;whiteSpace=wrap;html=1;aspect=fixed;fillColor=#dae8fc;strokeColor=#6c8ebf;" parent="LL2xIqkjGdLYfV9IT-Gz-7" vertex="1">
          <mxGeometry x="90" y="40" width="20" height="20" as="geometry" />
        </mxCell>
        <mxCell id="LL2xIqkjGdLYfV9IT-Gz-16" style="edgeStyle=none;rounded=0;orthogonalLoop=1;jettySize=auto;html=1;exitX=1;exitY=1;exitDx=0;exitDy=0;entryX=0;entryY=0;entryDx=0;entryDy=0;fontSize=30;fillColor=#dae8fc;strokeColor=#6c8ebf;" parent="LL2xIqkjGdLYfV9IT-Gz-7" source="LL2xIqkjGdLYfV9IT-Gz-11" target="LL2xIqkjGdLYfV9IT-Gz-15" edge="1">
          <mxGeometry relative="1" as="geometry" />
        </mxCell>
        <mxCell id="LL2xIqkjGdLYfV9IT-Gz-17" value="" style="group" parent="1" vertex="1" connectable="0">
          <mxGeometry x="1502" y="613.5699999999999" width="110" height="80" as="geometry" />
        </mxCell>
        <mxCell id="LL2xIqkjGdLYfV9IT-Gz-18" value="" style="ellipse;whiteSpace=wrap;html=1;aspect=fixed;fillColor=#dae8fc;strokeColor=#6c8ebf;" parent="LL2xIqkjGdLYfV9IT-Gz-17" vertex="1">
          <mxGeometry x="30" width="20" height="20" as="geometry" />
        </mxCell>
        <mxCell id="LL2xIqkjGdLYfV9IT-Gz-19" value="" style="ellipse;whiteSpace=wrap;html=1;aspect=fixed;fillColor=#dae8fc;strokeColor=#6c8ebf;" parent="LL2xIqkjGdLYfV9IT-Gz-17" vertex="1">
          <mxGeometry y="20" width="20" height="20" as="geometry" />
        </mxCell>
        <mxCell id="LL2xIqkjGdLYfV9IT-Gz-20" style="rounded=0;orthogonalLoop=1;jettySize=auto;html=1;exitX=0;exitY=1;exitDx=0;exitDy=0;entryX=1;entryY=0;entryDx=0;entryDy=0;fontSize=30;fillColor=#dae8fc;strokeColor=#6c8ebf;" parent="LL2xIqkjGdLYfV9IT-Gz-17" source="LL2xIqkjGdLYfV9IT-Gz-18" target="LL2xIqkjGdLYfV9IT-Gz-19" edge="1">
          <mxGeometry relative="1" as="geometry" />
        </mxCell>
        <mxCell id="LL2xIqkjGdLYfV9IT-Gz-21" style="edgeStyle=none;rounded=0;orthogonalLoop=1;jettySize=auto;html=1;exitX=0;exitY=1;exitDx=0;exitDy=0;entryX=1;entryY=0;entryDx=0;entryDy=0;fontSize=30;fillColor=#dae8fc;strokeColor=#6c8ebf;" parent="LL2xIqkjGdLYfV9IT-Gz-17" source="LL2xIqkjGdLYfV9IT-Gz-22" edge="1">
          <mxGeometry relative="1" as="geometry">
            <mxPoint x="47.07106781186553" y="42.92893218813447" as="targetPoint" />
          </mxGeometry>
        </mxCell>
        <mxCell id="LL2xIqkjGdLYfV9IT-Gz-22" value="" style="ellipse;whiteSpace=wrap;html=1;aspect=fixed;fillColor=#dae8fc;strokeColor=#6c8ebf;" parent="LL2xIqkjGdLYfV9IT-Gz-17" vertex="1">
          <mxGeometry x="60" y="20" width="20" height="20" as="geometry" />
        </mxCell>
        <mxCell id="LL2xIqkjGdLYfV9IT-Gz-23" style="edgeStyle=none;rounded=0;orthogonalLoop=1;jettySize=auto;html=1;exitX=1;exitY=1;exitDx=0;exitDy=0;entryX=0;entryY=0;entryDx=0;entryDy=0;fontSize=30;fillColor=#dae8fc;strokeColor=#6c8ebf;" parent="LL2xIqkjGdLYfV9IT-Gz-17" source="LL2xIqkjGdLYfV9IT-Gz-18" target="LL2xIqkjGdLYfV9IT-Gz-22" edge="1">
          <mxGeometry relative="1" as="geometry" />
        </mxCell>
        <mxCell id="LL2xIqkjGdLYfV9IT-Gz-24" value="" style="ellipse;whiteSpace=wrap;html=1;aspect=fixed;fillColor=#dae8fc;strokeColor=#6c8ebf;" parent="LL2xIqkjGdLYfV9IT-Gz-17" vertex="1">
          <mxGeometry x="90" y="40" width="20" height="20" as="geometry" />
        </mxCell>
        <mxCell id="LL2xIqkjGdLYfV9IT-Gz-25" style="edgeStyle=none;rounded=0;orthogonalLoop=1;jettySize=auto;html=1;exitX=1;exitY=1;exitDx=0;exitDy=0;entryX=0;entryY=0;entryDx=0;entryDy=0;fontSize=30;fillColor=#dae8fc;strokeColor=#6c8ebf;" parent="LL2xIqkjGdLYfV9IT-Gz-17" source="LL2xIqkjGdLYfV9IT-Gz-22" target="LL2xIqkjGdLYfV9IT-Gz-24" edge="1">
          <mxGeometry relative="1" as="geometry" />
        </mxCell>
        <mxCell id="LL2xIqkjGdLYfV9IT-Gz-26" value="" style="ellipse;whiteSpace=wrap;html=1;aspect=fixed;fillColor=#d5e8d4;strokeColor=#82b366;" parent="LL2xIqkjGdLYfV9IT-Gz-17" vertex="1">
          <mxGeometry x="30" y="40" width="20" height="20" as="geometry" />
        </mxCell>
        <mxCell id="LL2xIqkjGdLYfV9IT-Gz-27" value="" style="ellipse;whiteSpace=wrap;html=1;aspect=fixed;fillColor=#d5e8d4;strokeColor=#82b366;" parent="LL2xIqkjGdLYfV9IT-Gz-17" vertex="1">
          <mxGeometry y="60" width="20" height="20" as="geometry" />
        </mxCell>
        <mxCell id="LL2xIqkjGdLYfV9IT-Gz-28" style="edgeStyle=none;rounded=0;orthogonalLoop=1;jettySize=auto;html=1;exitX=0;exitY=1;exitDx=0;exitDy=0;entryX=1;entryY=0;entryDx=0;entryDy=0;fontSize=30;fillColor=#d5e8d4;strokeColor=#82b366;" parent="LL2xIqkjGdLYfV9IT-Gz-17" source="LL2xIqkjGdLYfV9IT-Gz-26" target="LL2xIqkjGdLYfV9IT-Gz-27" edge="1">
          <mxGeometry relative="1" as="geometry" />
        </mxCell>
        <mxCell id="LL2xIqkjGdLYfV9IT-Gz-29" value="" style="ellipse;whiteSpace=wrap;html=1;aspect=fixed;fillColor=#d5e8d4;strokeColor=#82b366;" parent="LL2xIqkjGdLYfV9IT-Gz-17" vertex="1">
          <mxGeometry x="60" y="60" width="20" height="20" as="geometry" />
        </mxCell>
        <mxCell id="LL2xIqkjGdLYfV9IT-Gz-30" style="edgeStyle=none;rounded=0;orthogonalLoop=1;jettySize=auto;html=1;exitX=1;exitY=1;exitDx=0;exitDy=0;entryX=0;entryY=0;entryDx=0;entryDy=0;fontSize=30;fillColor=#d5e8d4;strokeColor=#82b366;" parent="LL2xIqkjGdLYfV9IT-Gz-17" source="LL2xIqkjGdLYfV9IT-Gz-26" target="LL2xIqkjGdLYfV9IT-Gz-29" edge="1">
          <mxGeometry relative="1" as="geometry" />
        </mxCell>
        <mxCell id="LL2xIqkjGdLYfV9IT-Gz-31" value="&lt;font face=&quot;Times New Roman&quot;&gt;&lt;span style=&quot;font-size: 20px&quot;&gt;&lt;b&gt;After&lt;/b&gt;&lt;/span&gt;&lt;/font&gt;" style="text;html=1;strokeColor=none;fillColor=none;align=center;verticalAlign=middle;whiteSpace=wrap;rounded=0;fontSize=24;" parent="1" vertex="1">
          <mxGeometry x="1332" y="643.5699999999999" width="60" height="30" as="geometry" />
        </mxCell>
        <mxCell id="LL2xIqkjGdLYfV9IT-Gz-32" value="" style="shape=image;verticalLabelPosition=bottom;labelBackgroundColor=default;verticalAlign=top;aspect=fixed;imageAspect=0;image=data:image/svg+xml,PHN2ZyB4bWxucz0iaHR0cDovL3d3dy53My5vcmcvMjAwMC9zdmciIHhtbG5zOnhsaW5rPSJodHRwOi8vd3d3LnczLm9yZy8xOTk5L3hsaW5rIiB0PSIxNjgyMDgxODY1MDIzIiBjbGFzcz0iaWNvbiIgdmlld0JveD0iMCAwIDEwMjQgMTAyNCIgdmVyc2lvbj0iMS4xIiBwLWlkPSI2MDU2IiBkYXRhLXNwbS1hbmNob3ItaWQ9ImEzMTN4Ljc3ODEwNjkuMC5pNSIgd2lkdGg9IjIwMCIgaGVpZ2h0PSIyMDAiPjxwYXRoIGQ9Ik0xODYuMTgxODE4IDgzNy44MTgxODJsMzI1LjgxODE4MiAwIDAgNDYuNTQ1NDU1LTMyNS44MTgxODIgMCAwLTQ2LjU0NTQ1NVpNODM3LjgxODE4MiA4MzcuODE4MTgyIDgzNy44MTgxODIgODg0LjM2MzYzNiA5MzAuOTA5MDkxIDg4NC4zNjM2MzYgOTMwLjkwOTA5MSAwIDIzMi43MjcyNzMgMCAyMzIuNzI3MjczIDkzLjA5MDkwOSAyNzkuMjcyNzI3IDkzLjA5MDkwOSAyNzkuMjcyNzI3IDQ2LjU0NTQ1NSA4ODQuMzYzNjM2IDQ2LjU0NTQ1NSA4ODQuMzYzNjM2IDgzNy44MTgxODJaTTE4Ni4xODE4MTggNjk4LjE4MTgxOGw1MTIgMCAwIDQ2LjU0NTQ1NS01MTIgMCAwLTQ2LjU0NTQ1NVpNOTMuMDkwOTA5IDE0OS40MTA5MDlsMCA4NjQuODE0NTQ1QzkzLjA5MDkwOSAxMDE5LjYyNDcyNyA5Ny4zNzMwOTEgMTAyNCAxMDIuNjc5MjczIDEwMjRsNjc4Ljk1ODU0NSAwQzc4Ni45OTA1NDUgMTAyNCA3OTEuMjcyNzI3IDEwMTkuNjcxMjczIDc5MS4yNzI3MjcgMTAxNC4yMjU0NTVMNzkxLjI3MjcyNyAxNDkuNDEwOTA5Qzc5MS4yNzI3MjcgMTQ0LjAxMTYzNiA3ODYuOTkwNTQ1IDEzOS42MzYzNjQgNzgxLjY4NDM2NCAxMzkuNjM2MzY0TDEwMi42NzkyNzMgMTM5LjYzNjM2NEM5Ny4zNzMwOTEgMTM5LjYzNjM2NCA5My4wOTA5MDkgMTQzLjk2NTA5MSA5My4wOTA5MDkgMTQ5LjQxMDkwOXpNMTM5LjYzNjM2NCAxODYuMTgxODE4bDYwNS4wOTA5MDkgMCAwIDc5MS4yNzI3MjdMMTM5LjYzNjM2NCA5NzcuNDU0NTQ1IDEzOS42MzYzNjQgMTg2LjE4MTgxOHpNMTg2LjE4MTgxOCAyNzkuMjcyNzI3bDUxMiAwIDAgNDYuNTQ1NDU1LTUxMiAwIDAtNDYuNTQ1NDU1Wk0xODYuMTgxODE4IDQxOC45MDkwOTFsNTEyIDAgMCA0Ni41NDU0NTUtNTEyIDAgMC00Ni41NDU0NTVaTTE4Ni4xODE4MTggNTU4LjU0NTQ1NWw1MTIgMCAwIDQ2LjU0NTQ1NS01MTIgMCAwLTQ2LjU0NTQ1NVoiIGZpbGw9IiMwZjIyMDIiIHAtaWQ9IjYwNTciIGRhdGEtc3BtLWFuY2hvci1pZD0iYTMxM3guNzc4MTA2OS4wLmk0IiBjbGFzcz0ic2VsZWN0ZWQiLz48L3N2Zz4=;" parent="1" vertex="1">
          <mxGeometry x="1392" y="528.5699999999999" width="70" height="70" as="geometry" />
        </mxCell>
        <mxCell id="LL2xIqkjGdLYfV9IT-Gz-33" value="" style="endArrow=none;html=1;rounded=0;fontFamily=Times New Roman;fontSize=60;strokeWidth=4;fillColor=#f8cecc;strokeColor=#CC0000;" parent="1" edge="1">
          <mxGeometry width="50" height="50" relative="1" as="geometry">
            <mxPoint x="1403" y="567.5699999999999" as="sourcePoint" />
            <mxPoint x="1440" y="567.5699999999999" as="targetPoint" />
          </mxGeometry>
        </mxCell>
        <mxCell id="LL2xIqkjGdLYfV9IT-Gz-34" value="" style="shape=image;verticalLabelPosition=bottom;labelBackgroundColor=default;verticalAlign=top;aspect=fixed;imageAspect=0;image=data:image/svg+xml,PHN2ZyB4bWxucz0iaHR0cDovL3d3dy53My5vcmcvMjAwMC9zdmciIHhtbG5zOnhsaW5rPSJodHRwOi8vd3d3LnczLm9yZy8xOTk5L3hsaW5rIiB0PSIxNjgyMDgxODY1MDIzIiBjbGFzcz0iaWNvbiIgdmlld0JveD0iMCAwIDEwMjQgMTAyNCIgdmVyc2lvbj0iMS4xIiBwLWlkPSI2MDU2IiBkYXRhLXNwbS1hbmNob3ItaWQ9ImEzMTN4Ljc3ODEwNjkuMC5pNSIgd2lkdGg9IjIwMCIgaGVpZ2h0PSIyMDAiPjxwYXRoIGQ9Ik0xODYuMTgxODE4IDgzNy44MTgxODJsMzI1LjgxODE4MiAwIDAgNDYuNTQ1NDU1LTMyNS44MTgxODIgMCAwLTQ2LjU0NTQ1NVpNODM3LjgxODE4MiA4MzcuODE4MTgyIDgzNy44MTgxODIgODg0LjM2MzYzNiA5MzAuOTA5MDkxIDg4NC4zNjM2MzYgOTMwLjkwOTA5MSAwIDIzMi43MjcyNzMgMCAyMzIuNzI3MjczIDkzLjA5MDkwOSAyNzkuMjcyNzI3IDkzLjA5MDkwOSAyNzkuMjcyNzI3IDQ2LjU0NTQ1NSA4ODQuMzYzNjM2IDQ2LjU0NTQ1NSA4ODQuMzYzNjM2IDgzNy44MTgxODJaTTE4Ni4xODE4MTggNjk4LjE4MTgxOGw1MTIgMCAwIDQ2LjU0NTQ1NS01MTIgMCAwLTQ2LjU0NTQ1NVpNOTMuMDkwOTA5IDE0OS40MTA5MDlsMCA4NjQuODE0NTQ1QzkzLjA5MDkwOSAxMDE5LjYyNDcyNyA5Ny4zNzMwOTEgMTAyNCAxMDIuNjc5MjczIDEwMjRsNjc4Ljk1ODU0NSAwQzc4Ni45OTA1NDUgMTAyNCA3OTEuMjcyNzI3IDEwMTkuNjcxMjczIDc5MS4yNzI3MjcgMTAxNC4yMjU0NTVMNzkxLjI3MjcyNyAxNDkuNDEwOTA5Qzc5MS4yNzI3MjcgMTQ0LjAxMTYzNiA3ODYuOTkwNTQ1IDEzOS42MzYzNjQgNzgxLjY4NDM2NCAxMzkuNjM2MzY0TDEwMi42NzkyNzMgMTM5LjYzNjM2NEM5Ny4zNzMwOTEgMTM5LjYzNjM2NCA5My4wOTA5MDkgMTQzLjk2NTA5MSA5My4wOTA5MDkgMTQ5LjQxMDkwOXpNMTM5LjYzNjM2NCAxODYuMTgxODE4bDYwNS4wOTA5MDkgMCAwIDc5MS4yNzI3MjdMMTM5LjYzNjM2NCA5NzcuNDU0NTQ1IDEzOS42MzYzNjQgMTg2LjE4MTgxOHpNMTg2LjE4MTgxOCAyNzkuMjcyNzI3bDUxMiAwIDAgNDYuNTQ1NDU1LTUxMiAwIDAtNDYuNTQ1NDU1Wk0xODYuMTgxODE4IDQxOC45MDkwOTFsNTEyIDAgMCA0Ni41NDU0NTUtNTEyIDAgMC00Ni41NDU0NTVaTTE4Ni4xODE4MTggNTU4LjU0NTQ1NWw1MTIgMCAwIDQ2LjU0NTQ1NS01MTIgMCAwLTQ2LjU0NTQ1NVoiIGZpbGw9IiMwZjIyMDIiIHAtaWQ9IjYwNTciIGRhdGEtc3BtLWFuY2hvci1pZD0iYTMxM3guNzc4MTA2OS4wLmk0IiBjbGFzcz0ic2VsZWN0ZWQiLz48L3N2Zz4=;" parent="1" vertex="1">
          <mxGeometry x="1392" y="624.5699999999999" width="70" height="70" as="geometry" />
        </mxCell>
        <mxCell id="LL2xIqkjGdLYfV9IT-Gz-35" value="" style="endArrow=none;html=1;rounded=0;fontFamily=Times New Roman;fontSize=60;strokeWidth=4;fillColor=#f8cecc;strokeColor=#006633;" parent="1" edge="1">
          <mxGeometry width="50" height="50" relative="1" as="geometry">
            <mxPoint x="1403" y="663.5699999999999" as="sourcePoint" />
            <mxPoint x="1440" y="663.5699999999999" as="targetPoint" />
          </mxGeometry>
        </mxCell>
        <mxCell id="LL2xIqkjGdLYfV9IT-Gz-36" value="" style="endArrow=classic;html=1;rounded=0;fontFamily=Times New Roman;fontSize=60;strokeColor=#000000;strokeWidth=2;" parent="1" edge="1">
          <mxGeometry width="50" height="50" relative="1" as="geometry">
            <mxPoint x="1462" y="563.5699999999999" as="sourcePoint" />
            <mxPoint x="1492" y="563.5699999999999" as="targetPoint" />
          </mxGeometry>
        </mxCell>
        <mxCell id="LL2xIqkjGdLYfV9IT-Gz-37" value="" style="endArrow=classic;html=1;rounded=0;fontFamily=Times New Roman;fontSize=60;strokeColor=#000000;strokeWidth=2;" parent="1" edge="1">
          <mxGeometry width="50" height="50" relative="1" as="geometry">
            <mxPoint x="1462" y="653.5699999999999" as="sourcePoint" />
            <mxPoint x="1492" y="653.5699999999999" as="targetPoint" />
          </mxGeometry>
        </mxCell>
        <mxCell id="LL2xIqkjGdLYfV9IT-Gz-38" value="" style="rounded=0;whiteSpace=wrap;html=1;fontFamily=Times New Roman;fontSize=30;strokeWidth=2;" parent="1" vertex="1">
          <mxGeometry x="1200" y="553.5699999999999" width="92" height="100" as="geometry" />
        </mxCell>
        <mxCell id="LL2xIqkjGdLYfV9IT-Gz-39" value="" style="endArrow=none;html=1;rounded=0;fontFamily=Times New Roman;fontSize=30;strokeColor=#000000;strokeWidth=3;" parent="1" edge="1">
          <mxGeometry width="50" height="50" relative="1" as="geometry">
            <mxPoint x="1217" y="574.5699999999999" as="sourcePoint" />
            <mxPoint x="1287" y="574.5699999999999" as="targetPoint" />
          </mxGeometry>
        </mxCell>
        <mxCell id="LL2xIqkjGdLYfV9IT-Gz-40" value="..." style="text;html=1;strokeColor=none;fillColor=none;align=center;verticalAlign=middle;whiteSpace=wrap;rounded=0;fontFamily=Times New Roman;fontSize=30;" parent="1" vertex="1">
          <mxGeometry x="1222" y="543.5699999999999" width="60" height="20" as="geometry" />
        </mxCell>
        <mxCell id="LL2xIqkjGdLYfV9IT-Gz-41" value="" style="endArrow=none;html=1;rounded=0;fontFamily=Times New Roman;fontSize=30;strokeColor=#000000;strokeWidth=3;" parent="1" edge="1">
          <mxGeometry width="50" height="50" relative="1" as="geometry">
            <mxPoint x="1217" y="586.5699999999999" as="sourcePoint" />
            <mxPoint x="1287" y="586.5699999999999" as="targetPoint" />
          </mxGeometry>
        </mxCell>
        <mxCell id="LL2xIqkjGdLYfV9IT-Gz-42" value="" style="endArrow=none;html=1;rounded=0;fontFamily=Times New Roman;fontSize=30;strokeColor=#990000;strokeWidth=3;fillColor=#f8cecc;" parent="1" edge="1">
          <mxGeometry width="50" height="50" relative="1" as="geometry">
            <mxPoint x="1217" y="598.5699999999999" as="sourcePoint" />
            <mxPoint x="1287" y="598.5699999999999" as="targetPoint" />
          </mxGeometry>
        </mxCell>
        <mxCell id="LL2xIqkjGdLYfV9IT-Gz-43" value="" style="endArrow=none;html=1;rounded=0;fontFamily=Times New Roman;fontSize=30;strokeColor=#006633;strokeWidth=3;" parent="1" edge="1">
          <mxGeometry width="50" height="50" relative="1" as="geometry">
            <mxPoint x="1217" y="610.5699999999999" as="sourcePoint" />
            <mxPoint x="1287" y="610.5699999999999" as="targetPoint" />
          </mxGeometry>
        </mxCell>
        <mxCell id="LL2xIqkjGdLYfV9IT-Gz-44" value="" style="endArrow=none;html=1;rounded=0;fontFamily=Times New Roman;fontSize=30;strokeColor=#006633;strokeWidth=3;" parent="1" edge="1">
          <mxGeometry width="50" height="50" relative="1" as="geometry">
            <mxPoint x="1217" y="622.5699999999999" as="sourcePoint" />
            <mxPoint x="1287" y="622.5699999999999" as="targetPoint" />
          </mxGeometry>
        </mxCell>
        <mxCell id="LL2xIqkjGdLYfV9IT-Gz-45" value="" style="endArrow=none;html=1;rounded=0;fontFamily=Times New Roman;fontSize=30;strokeColor=#000000;strokeWidth=3;" parent="1" edge="1">
          <mxGeometry width="50" height="50" relative="1" as="geometry">
            <mxPoint x="1217" y="634.5699999999999" as="sourcePoint" />
            <mxPoint x="1287" y="634.5699999999999" as="targetPoint" />
          </mxGeometry>
        </mxCell>
        <mxCell id="LL2xIqkjGdLYfV9IT-Gz-46" value="..." style="text;html=1;strokeColor=none;fillColor=none;align=center;verticalAlign=middle;whiteSpace=wrap;rounded=0;fontFamily=Times New Roman;fontSize=30;" parent="1" vertex="1">
          <mxGeometry x="1222" y="623.5699999999999" width="60" height="20" as="geometry" />
        </mxCell>
        <mxCell id="LL2xIqkjGdLYfV9IT-Gz-47" value="&lt;font color=&quot;#006633&quot; size=&quot;1&quot;&gt;&lt;b style=&quot;font-size: 18px&quot;&gt;+&lt;/b&gt;&lt;/font&gt;" style="text;html=1;strokeColor=none;fillColor=none;align=center;verticalAlign=middle;whiteSpace=wrap;rounded=0;fontFamily=Times New Roman;fontSize=30;" parent="1" vertex="1">
          <mxGeometry x="1192" y="607.5699999999999" width="30" height="20" as="geometry" />
        </mxCell>
        <mxCell id="LL2xIqkjGdLYfV9IT-Gz-48" value="&lt;b&gt;&lt;font style=&quot;font-size: 22px&quot; color=&quot;#990000&quot;&gt;-&lt;/font&gt;&lt;/b&gt;" style="text;html=1;strokeColor=none;fillColor=none;align=center;verticalAlign=middle;whiteSpace=wrap;rounded=0;fontFamily=Times New Roman;fontSize=30;" parent="1" vertex="1">
          <mxGeometry x="1192" y="582.5699999999999" width="30" height="20" as="geometry" />
        </mxCell>
        <mxCell id="LL2xIqkjGdLYfV9IT-Gz-49" value="&lt;font color=&quot;#006633&quot; size=&quot;1&quot;&gt;&lt;b style=&quot;font-size: 18px&quot;&gt;+&lt;/b&gt;&lt;/font&gt;" style="text;html=1;strokeColor=none;fillColor=none;align=center;verticalAlign=middle;whiteSpace=wrap;rounded=0;fontFamily=Times New Roman;fontSize=30;" parent="1" vertex="1">
          <mxGeometry x="1192" y="595.5699999999999" width="30" height="20" as="geometry" />
        </mxCell>
        <mxCell id="LL2xIqkjGdLYfV9IT-Gz-50" value="&lt;font face=&quot;Times New Roman&quot;&gt;&lt;span style=&quot;font-size: 20px&quot;&gt;&lt;b&gt;File Diff&lt;/b&gt;&lt;/span&gt;&lt;/font&gt;" style="text;html=1;strokeColor=none;fillColor=none;align=center;verticalAlign=middle;whiteSpace=wrap;rounded=0;fontSize=24;" parent="1" vertex="1">
          <mxGeometry x="1206" y="654.5699999999999" width="76" height="30" as="geometry" />
        </mxCell>
        <mxCell id="LL2xIqkjGdLYfV9IT-Gz-51" value="" style="endArrow=classic;html=1;rounded=0;fontFamily=Times New Roman;fontSize=60;strokeColor=#000000;strokeWidth=2;entryX=0;entryY=1;entryDx=0;entryDy=0;" parent="1" target="LL2xIqkjGdLYfV9IT-Gz-5" edge="1">
          <mxGeometry width="50" height="50" relative="1" as="geometry">
            <mxPoint x="1302" y="603.5699999999999" as="sourcePoint" />
            <mxPoint x="1332" y="603.5699999999999" as="targetPoint" />
          </mxGeometry>
        </mxCell>
        <mxCell id="LL2xIqkjGdLYfV9IT-Gz-52" value="" style="endArrow=classic;html=1;rounded=0;fontFamily=Times New Roman;fontSize=60;strokeColor=#000000;strokeWidth=2;entryX=0;entryY=0;entryDx=0;entryDy=0;" parent="1" target="LL2xIqkjGdLYfV9IT-Gz-31" edge="1">
          <mxGeometry width="50" height="50" relative="1" as="geometry">
            <mxPoint x="1302" y="611.5699999999999" as="sourcePoint" />
            <mxPoint x="1332" y="651.5699999999999" as="targetPoint" />
          </mxGeometry>
        </mxCell>
        <mxCell id="LL2xIqkjGdLYfV9IT-Gz-54" value="" style="rounded=0;whiteSpace=wrap;html=1;fontFamily=Times New Roman;fontSize=30;strokeWidth=2;noLabel=1;fillColor=#d5e8d4;strokeColor=none;" parent="1" vertex="1">
          <mxGeometry x="1792" y="515.6299999999999" width="230" height="78.18" as="geometry" />
        </mxCell>
        <mxCell id="LL2xIqkjGdLYfV9IT-Gz-56" value="" style="rounded=0;whiteSpace=wrap;html=1;fontFamily=Times New Roman;fontSize=30;strokeWidth=2;noLabel=1;fillColor=#f8cecc;strokeColor=none;" parent="1" vertex="1">
          <mxGeometry x="1441" y="191.51" width="185" height="71" as="geometry" />
        </mxCell>
        <mxCell id="LL2xIqkjGdLYfV9IT-Gz-58" value="" style="rounded=0;whiteSpace=wrap;html=1;fontFamily=Times New Roman;fontSize=30;strokeWidth=2;noLabel=1;fillColor=#d5e8d4;strokeColor=none;" parent="1" vertex="1">
          <mxGeometry x="2062" y="515.63" width="350" height="175.93" as="geometry" />
        </mxCell>
        <mxCell id="LL2xIqkjGdLYfV9IT-Gz-61" value="" style="rounded=0;whiteSpace=wrap;html=1;fontFamily=Times New Roman;fontSize=30;strokeWidth=2;" parent="1" vertex="1">
          <mxGeometry x="3416.5" y="360.6299999999999" width="360" height="120" as="geometry" />
        </mxCell>
        <mxCell id="LL2xIqkjGdLYfV9IT-Gz-68" value="&lt;p style=&quot;line-height: 40%; font-size: 30px;&quot;&gt;&lt;font face=&quot;Times New Roman&quot; style=&quot;font-size: 30px;&quot;&gt;&lt;b style=&quot;font-size: 30px;&quot;&gt;Pangu-coder/StarCoder&lt;/b&gt;&lt;/font&gt;&lt;/p&gt;" style="text;html=1;strokeColor=none;fillColor=none;align=center;verticalAlign=middle;whiteSpace=wrap;rounded=0;fontSize=30;" parent="1" vertex="1">
          <mxGeometry x="3416.5" y="402.1299999999999" width="360" height="37" as="geometry" />
        </mxCell>
        <mxCell id="LL2xIqkjGdLYfV9IT-Gz-101" value="" style="endArrow=classic;html=1;rounded=0;fontFamily=Times New Roman;fontSize=24;strokeWidth=4;" parent="1" edge="1">
          <mxGeometry width="50" height="50" relative="1" as="geometry">
            <mxPoint x="1629" y="553.5699999999999" as="sourcePoint" />
            <mxPoint x="1782" y="554.15" as="targetPoint" />
          </mxGeometry>
        </mxCell>
        <mxCell id="LL2xIqkjGdLYfV9IT-Gz-106" value="&lt;b style=&quot;border-color: var(--border-color); color: rgb(0, 0, 0); font-family: &amp;quot;Times New Roman&amp;quot;; font-size: 20px; font-style: normal; font-variant-ligatures: normal; font-variant-caps: normal; letter-spacing: normal; orphans: 2; text-align: center; text-indent: 0px; text-transform: none; widows: 2; word-spacing: 0px; -webkit-text-stroke-width: 0px; text-decoration-thickness: initial; text-decoration-style: initial; text-decoration-color: initial;&quot;&gt;Context Within Method&lt;br&gt;Context Cross Method&lt;br&gt;&lt;/b&gt;" style="text;whiteSpace=wrap;html=1;labelBackgroundColor=none;" parent="1" vertex="1">
          <mxGeometry x="1804" y="521.7899999999998" width="210" height="65.85" as="geometry" />
        </mxCell>
        <mxCell id="LL2xIqkjGdLYfV9IT-Gz-112" value="" style="endArrow=classic;html=1;rounded=0;fontFamily=Times New Roman;fontSize=24;strokeWidth=4;" parent="1" edge="1">
          <mxGeometry width="50" height="50" relative="1" as="geometry">
            <mxPoint x="1622" y="660.0999999999999" as="sourcePoint" />
            <mxPoint x="1782" y="660.56" as="targetPoint" />
          </mxGeometry>
        </mxCell>
        <mxCell id="LL2xIqkjGdLYfV9IT-Gz-113" value="&lt;b style=&quot;border-color: var(--border-color); color: rgb(0, 0, 0); font-family: &amp;quot;Times New Roman&amp;quot;; font-style: normal; font-variant-ligatures: normal; font-variant-caps: normal; letter-spacing: normal; orphans: 2; text-align: center; text-indent: 0px; text-transform: none; widows: 2; word-spacing: 0px; -webkit-text-stroke-width: 0px; background-color: rgb(251, 251, 251); text-decoration-thickness: initial; text-decoration-style: initial; text-decoration-color: initial;&quot;&gt;&lt;font style=&quot;font-size: 20px;&quot;&gt;Program Slicing&lt;/font&gt;&lt;/b&gt;" style="text;whiteSpace=wrap;html=1;" parent="1" vertex="1">
          <mxGeometry x="1632" y="623.5699999999999" width="150" height="40" as="geometry" />
        </mxCell>
        <mxCell id="LL2xIqkjGdLYfV9IT-Gz-114" value="" style="rounded=0;whiteSpace=wrap;html=1;fontFamily=Times New Roman;fontSize=30;strokeWidth=2;noLabel=1;fillColor=#d5e8d4;strokeColor=none;" parent="1" vertex="1">
          <mxGeometry x="1792" y="624.72" width="230" height="67.99" as="geometry" />
        </mxCell>
        <mxCell id="LL2xIqkjGdLYfV9IT-Gz-116" value="&lt;b style=&quot;border-color: var(--border-color); color: rgb(0, 0, 0); font-family: &amp;quot;Times New Roman&amp;quot;; font-size: 20px; font-style: normal; font-variant-ligatures: normal; font-variant-caps: normal; letter-spacing: normal; orphans: 2; text-align: center; text-indent: 0px; text-transform: none; widows: 2; word-spacing: 0px; -webkit-text-stroke-width: 0px; text-decoration-thickness: initial; text-decoration-style: initial; text-decoration-color: initial;&quot;&gt;&amp;lt;Before Change&amp;gt;&amp;lt;InMethod&amp;gt; XXX&lt;br&gt;&lt;b style=&quot;border-color: var(--border-color);&quot;&gt;&amp;lt;CrossMethod&amp;gt; XXX&lt;br&gt;&lt;/b&gt;&lt;b style=&quot;border-color: var(--border-color);&quot;&gt;&lt;br&gt;&lt;br&gt;&amp;lt;After Change&amp;gt;&lt;/b&gt;&lt;b style=&quot;border-color: var(--border-color);&quot;&gt;&amp;lt;InMethod&amp;gt; XX&lt;br style=&quot;border-color: var(--border-color);&quot;&gt;&lt;b style=&quot;border-color: var(--border-color);&quot;&gt;&amp;lt;CrossMethod&amp;gt; XXX&lt;/b&gt;&lt;/b&gt;&lt;br&gt;&lt;/b&gt;" style="text;whiteSpace=wrap;html=1;labelBackgroundColor=none;" parent="1" vertex="1">
          <mxGeometry x="2075.5" y="534.9499999999999" width="323" height="151.36" as="geometry" />
        </mxCell>
        <mxCell id="LL2xIqkjGdLYfV9IT-Gz-120" value="&lt;b style=&quot;border-color: var(--border-color); color: rgb(0, 0, 0); font-family: &amp;quot;Times New Roman&amp;quot;; font-size: 27px; font-style: normal; font-variant-ligatures: normal; font-variant-caps: normal; letter-spacing: normal; orphans: 2; text-align: center; text-indent: 0px; text-transform: none; widows: 2; word-spacing: 0px; -webkit-text-stroke-width: 0px; text-decoration-thickness: initial; text-decoration-style: initial; text-decoration-color: initial;&quot;&gt;Message&lt;br&gt;&lt;/b&gt;" style="text;whiteSpace=wrap;html=1;labelBackgroundColor=none;" parent="1" vertex="1">
          <mxGeometry x="1481" y="207.73000000000005" width="110" height="53.32" as="geometry" />
        </mxCell>
        <mxCell id="LL2xIqkjGdLYfV9IT-Gz-121" value="" style="rounded=0;whiteSpace=wrap;html=1;fontFamily=Times New Roman;fontSize=30;strokeWidth=2;noLabel=1;fillColor=#d5e8d4;strokeColor=none;" parent="1" vertex="1">
          <mxGeometry x="2281" y="191.75" width="190" height="82.82" as="geometry" />
        </mxCell>
        <mxCell id="LL2xIqkjGdLYfV9IT-Gz-122" value="&lt;b style=&quot;border-color: var(--border-color); color: rgb(0, 0, 0); font-family: &amp;quot;Times New Roman&amp;quot;; font-size: 27px; font-style: normal; font-variant-ligatures: normal; font-variant-caps: normal; letter-spacing: normal; orphans: 2; text-align: center; text-indent: 0px; text-transform: none; widows: 2; word-spacing: 0px; -webkit-text-stroke-width: 0px; text-decoration-thickness: initial; text-decoration-style: initial; text-decoration-color: initial;&quot;&gt;Code Change Context&lt;br&gt;&lt;/b&gt;" style="text;whiteSpace=wrap;html=1;labelBackgroundColor=none;" parent="1" vertex="1">
          <mxGeometry x="2301" y="197.82" width="170" height="71.08" as="geometry" />
        </mxCell>
        <mxCell id="LL2xIqkjGdLYfV9IT-Gz-123" value="" style="rounded=0;whiteSpace=wrap;html=1;fontFamily=Times New Roman;fontSize=30;strokeWidth=2;noLabel=1;fillColor=#d5e8d4;strokeColor=none;" parent="1" vertex="1">
          <mxGeometry x="1441" y="328.09000000000003" width="190" height="82.82" as="geometry" />
        </mxCell>
        <mxCell id="LL2xIqkjGdLYfV9IT-Gz-124" value="&lt;b style=&quot;border-color: var(--border-color); color: rgb(0, 0, 0); font-family: &amp;quot;Times New Roman&amp;quot;; font-size: 27px; font-style: normal; font-variant-ligatures: normal; font-variant-caps: normal; letter-spacing: normal; orphans: 2; text-align: center; text-indent: 0px; text-transform: none; widows: 2; word-spacing: 0px; -webkit-text-stroke-width: 0px; text-decoration-thickness: initial; text-decoration-style: initial; text-decoration-color: initial;&quot;&gt;Code Change Context&lt;br&gt;&lt;/b&gt;" style="text;whiteSpace=wrap;html=1;labelBackgroundColor=none;" parent="1" vertex="1">
          <mxGeometry x="1461" y="334.15999999999997" width="170" height="71.08" as="geometry" />
        </mxCell>
        <mxCell id="LL2xIqkjGdLYfV9IT-Gz-125" value="" style="rounded=0;whiteSpace=wrap;html=1;fontFamily=Times New Roman;fontSize=30;strokeWidth=2;noLabel=1;fillColor=#f8cecc;strokeColor=none;" parent="1" vertex="1">
          <mxGeometry x="2281" y="334.24" width="185" height="71" as="geometry" />
        </mxCell>
        <mxCell id="LL2xIqkjGdLYfV9IT-Gz-126" value="&lt;b style=&quot;border-color: var(--border-color); color: rgb(0, 0, 0); font-family: &amp;quot;Times New Roman&amp;quot;; font-size: 27px; font-style: normal; font-variant-ligatures: normal; font-variant-caps: normal; letter-spacing: normal; orphans: 2; text-align: center; text-indent: 0px; text-transform: none; widows: 2; word-spacing: 0px; -webkit-text-stroke-width: 0px; text-decoration-thickness: initial; text-decoration-style: initial; text-decoration-color: initial;&quot;&gt;Message&lt;br&gt;&lt;/b&gt;" style="text;whiteSpace=wrap;html=1;labelBackgroundColor=none;" parent="1" vertex="1">
          <mxGeometry x="2321" y="350.46000000000004" width="110" height="53.32" as="geometry" />
        </mxCell>
        <mxCell id="LL2xIqkjGdLYfV9IT-Gz-127" value="" style="endArrow=classic;html=1;rounded=0;fontFamily=Times New Roman;fontSize=24;strokeWidth=4;entryX=0;entryY=0.5;entryDx=0;entryDy=0;exitX=0.989;exitY=0.67;exitDx=0;exitDy=0;exitPerimeter=0;" parent="1" source="LL2xIqkjGdLYfV9IT-Gz-3" target="LL2xIqkjGdLYfV9IT-Gz-56" edge="1">
          <mxGeometry width="50" height="50" relative="1" as="geometry">
            <mxPoint x="1301" y="273.96000000000004" as="sourcePoint" />
            <mxPoint x="1531" y="274.66999999999985" as="targetPoint" />
          </mxGeometry>
        </mxCell>
        <mxCell id="LL2xIqkjGdLYfV9IT-Gz-128" value="" style="endArrow=classic;html=1;rounded=0;fontFamily=Times New Roman;fontSize=24;strokeWidth=4;entryX=0;entryY=0.5;entryDx=0;entryDy=0;exitX=1.001;exitY=0.647;exitDx=0;exitDy=0;exitPerimeter=0;" parent="1" source="LL2xIqkjGdLYfV9IT-Gz-3" target="LL2xIqkjGdLYfV9IT-Gz-123" edge="1">
          <mxGeometry width="50" height="50" relative="1" as="geometry">
            <mxPoint x="1311" y="283.96000000000004" as="sourcePoint" />
            <mxPoint x="1451" y="236.63000000000002" as="targetPoint" />
          </mxGeometry>
        </mxCell>
        <mxCell id="LL2xIqkjGdLYfV9IT-Gz-129" value="" style="endArrow=classic;html=1;rounded=0;fontFamily=Times New Roman;fontSize=24;strokeWidth=4;entryX=-0.005;entryY=0.166;entryDx=0;entryDy=0;exitX=1;exitY=0.5;exitDx=0;exitDy=0;entryPerimeter=0;" parent="1" source="LL2xIqkjGdLYfV9IT-Gz-56" target="-_qQglWvZCDNXZgyJJdr-1" edge="1">
          <mxGeometry width="50" height="50" relative="1" as="geometry">
            <mxPoint x="1620" y="313.46000000000004" as="sourcePoint" />
            <mxPoint x="1761" y="236.46" as="targetPoint" />
          </mxGeometry>
        </mxCell>
        <mxCell id="LL2xIqkjGdLYfV9IT-Gz-130" value="" style="endArrow=classic;html=1;rounded=0;fontFamily=Times New Roman;fontSize=24;strokeWidth=4;exitX=1;exitY=0.5;exitDx=0;exitDy=0;" parent="1" source="LL2xIqkjGdLYfV9IT-Gz-124" edge="1">
          <mxGeometry width="50" height="50" relative="1" as="geometry">
            <mxPoint x="1641" y="370.5" as="sourcePoint" />
            <mxPoint x="1741" y="368.63" as="targetPoint" />
          </mxGeometry>
        </mxCell>
        <mxCell id="LL2xIqkjGdLYfV9IT-Gz-131" value="" style="endArrow=classic;html=1;rounded=0;fontFamily=Times New Roman;fontSize=24;strokeWidth=4;entryX=0;entryY=0.5;entryDx=0;entryDy=0;exitX=1.005;exitY=0.212;exitDx=0;exitDy=0;exitPerimeter=0;" parent="1" source="-_qQglWvZCDNXZgyJJdr-1" target="LL2xIqkjGdLYfV9IT-Gz-121" edge="1">
          <mxGeometry width="50" height="50" relative="1" as="geometry">
            <mxPoint x="2231" y="302.21000000000004" as="sourcePoint" />
            <mxPoint x="2344" y="300.21000000000004" as="targetPoint" />
          </mxGeometry>
        </mxCell>
        <mxCell id="LL2xIqkjGdLYfV9IT-Gz-132" value="" style="endArrow=classic;html=1;rounded=0;fontFamily=Times New Roman;fontSize=24;strokeWidth=4;exitX=0.999;exitY=0.805;exitDx=0;exitDy=0;entryX=0;entryY=0.5;entryDx=0;entryDy=0;exitPerimeter=0;" parent="1" source="-_qQglWvZCDNXZgyJJdr-1" target="LL2xIqkjGdLYfV9IT-Gz-125" edge="1">
          <mxGeometry width="50" height="50" relative="1" as="geometry">
            <mxPoint x="2231" y="430.63" as="sourcePoint" />
            <mxPoint x="2341" y="429.63" as="targetPoint" />
          </mxGeometry>
        </mxCell>
        <mxCell id="LL2xIqkjGdLYfV9IT-Gz-133" value="" style="shape=flexArrow;endArrow=classic;html=1;rounded=0;fontFamily=Times New Roman;fontSize=60;strokeWidth=4;exitX=0.5;exitY=1;exitDx=0;exitDy=0;entryX=0.291;entryY=-0.009;entryDx=0;entryDy=0;entryPerimeter=0;" parent="1" source="LL2xIqkjGdLYfV9IT-Gz-123" target="LL2xIqkjGdLYfV9IT-Gz-4" edge="1">
          <mxGeometry width="50" height="50" relative="1" as="geometry">
            <mxPoint x="1511" y="468.86" as="sourcePoint" />
            <mxPoint x="1571" y="468.63" as="targetPoint" />
          </mxGeometry>
        </mxCell>
        <mxCell id="LL2xIqkjGdLYfV9IT-Gz-135" value="&lt;b style=&quot;border-color: var(--border-color); color: rgb(0, 0, 0); font-family: &amp;quot;Times New Roman&amp;quot;; font-style: normal; font-variant-ligatures: normal; font-variant-caps: normal; letter-spacing: normal; orphans: 2; text-align: center; text-indent: 0px; text-transform: none; widows: 2; word-spacing: 0px; -webkit-text-stroke-width: 0px; background-color: rgb(251, 251, 251); text-decoration-thickness: initial; text-decoration-style: initial; text-decoration-color: initial;&quot;&gt;&lt;font style=&quot;font-size: 20px;&quot;&gt;Program Slicing&lt;/font&gt;&lt;/b&gt;" style="text;whiteSpace=wrap;html=1;" parent="1" vertex="1">
          <mxGeometry x="1632" y="514.4799999999999" width="150" height="40" as="geometry" />
        </mxCell>
        <mxCell id="LL2xIqkjGdLYfV9IT-Gz-136" value="&lt;b style=&quot;border-color: var(--border-color); color: rgb(0, 0, 0); font-family: &amp;quot;Times New Roman&amp;quot;; font-size: 20px; font-style: normal; font-variant-ligatures: normal; font-variant-caps: normal; letter-spacing: normal; orphans: 2; text-align: center; text-indent: 0px; text-transform: none; widows: 2; word-spacing: 0px; -webkit-text-stroke-width: 0px; text-decoration-thickness: initial; text-decoration-style: initial; text-decoration-color: initial;&quot;&gt;Context Within Method&lt;br&gt;Context Cross Method&lt;br&gt;&lt;/b&gt;" style="text;whiteSpace=wrap;html=1;labelBackgroundColor=none;" parent="1" vertex="1">
          <mxGeometry x="1802" y="628.72" width="210" height="65.85" as="geometry" />
        </mxCell>
        <mxCell id="LL2xIqkjGdLYfV9IT-Gz-137" value="&lt;b style=&quot;border-color: var(--border-color); color: rgb(0, 0, 0); font-family: &amp;quot;Times New Roman&amp;quot;; font-size: 20px; font-style: normal; font-variant-ligatures: normal; font-variant-caps: normal; letter-spacing: normal; orphans: 2; text-align: center; text-indent: 0px; text-transform: none; widows: 2; word-spacing: 0px; -webkit-text-stroke-width: 0px; text-decoration-thickness: initial; text-decoration-style: initial; text-decoration-color: initial;&quot;&gt;Context Within Method&lt;br&gt;Context Cross Method&lt;br&gt;&lt;/b&gt;" style="text;whiteSpace=wrap;html=1;labelBackgroundColor=none;" parent="1" vertex="1">
          <mxGeometry x="1804" y="521.7899999999998" width="210" height="65.85" as="geometry" />
        </mxCell>
        <mxCell id="LL2xIqkjGdLYfV9IT-Gz-138" value="" style="shape=curlyBracket;whiteSpace=wrap;html=1;rounded=1;flipH=1;fontFamily=Times New Roman;fontSize=24;strokeWidth=6;" parent="1" vertex="1">
          <mxGeometry x="2022" y="543.56" width="30" height="118" as="geometry" />
        </mxCell>
        <mxCell id="LL2xIqkjGdLYfV9IT-Gz-148" value="" style="rounded=0;whiteSpace=wrap;html=1;fontFamily=Times New Roman;fontSize=30;strokeWidth=2;noLabel=1;fillColor=#d5e8d4;strokeColor=none;" parent="1" vertex="1">
          <mxGeometry x="3171" y="310" width="179" height="253.57" as="geometry" />
        </mxCell>
        <mxCell id="LL2xIqkjGdLYfV9IT-Gz-149" value="" style="endArrow=classic;html=1;rounded=0;fontFamily=Times New Roman;fontSize=24;strokeWidth=4;exitX=1;exitY=0.5;exitDx=0;exitDy=0;" parent="1" edge="1">
          <mxGeometry width="50" height="50" relative="1" as="geometry">
            <mxPoint x="3776.5" y="421.03999999999985" as="sourcePoint" />
            <mxPoint x="3916.5" y="420.1299999999999" as="targetPoint" />
          </mxGeometry>
        </mxCell>
        <mxCell id="LL2xIqkjGdLYfV9IT-Gz-150" value="&lt;b style=&quot;border-color: var(--border-color); color: rgb(0, 0, 0); font-family: &amp;quot;Times New Roman&amp;quot;; font-size: 27px; font-style: normal; font-variant-ligatures: normal; font-variant-caps: normal; letter-spacing: normal; orphans: 2; text-align: center; text-indent: 0px; text-transform: none; widows: 2; word-spacing: 0px; -webkit-text-stroke-width: 0px; text-decoration-thickness: initial; text-decoration-style: initial; text-decoration-color: initial;&quot;&gt;Yes&lt;br&gt;&lt;/b&gt;" style="text;whiteSpace=wrap;html=1;labelBackgroundColor=none;" parent="1" vertex="1">
          <mxGeometry x="3815.5" y="374.80999999999983" width="51" height="53.32" as="geometry" />
        </mxCell>
        <mxCell id="LL2xIqkjGdLYfV9IT-Gz-152" value="&lt;b style=&quot;border-color: var(--border-color); color: rgb(0, 0, 0); font-family: &amp;quot;Times New Roman&amp;quot;; font-size: 27px; font-style: normal; font-variant-ligatures: normal; font-variant-caps: normal; letter-spacing: normal; orphans: 2; text-align: center; text-indent: 0px; text-transform: none; widows: 2; word-spacing: 0px; -webkit-text-stroke-width: 0px; text-decoration-thickness: initial; text-decoration-style: initial; text-decoration-color: initial;&quot;&gt;No&lt;br&gt;&lt;/b&gt;" style="text;whiteSpace=wrap;html=1;labelBackgroundColor=none;" parent="1" vertex="1">
          <mxGeometry x="3815.5" y="423.6299999999999" width="51" height="38" as="geometry" />
        </mxCell>
        <mxCell id="LL2xIqkjGdLYfV9IT-Gz-153" value="&lt;b style=&quot;border-color: var(--border-color); color: rgb(0, 0, 0); font-family: &amp;quot;Times New Roman&amp;quot;; font-size: 27px; font-style: normal; font-variant-ligatures: normal; font-variant-caps: normal; letter-spacing: normal; orphans: 2; text-align: center; text-indent: 0px; text-transform: none; widows: 2; word-spacing: 0px; -webkit-text-stroke-width: 0px; text-decoration-thickness: initial; text-decoration-style: initial; text-decoration-color: initial;&quot;&gt;Prompt 1&lt;br&gt;&lt;/b&gt;" style="text;whiteSpace=wrap;html=1;labelBackgroundColor=none;" parent="1" vertex="1">
          <mxGeometry x="3195" y="350.7099999999998" width="131" height="35.08" as="geometry" />
        </mxCell>
        <mxCell id="LL2xIqkjGdLYfV9IT-Gz-154" value="&lt;b style=&quot;border-color: var(--border-color); color: rgb(0, 0, 0); font-family: &amp;quot;Times New Roman&amp;quot;; font-size: 27px; font-style: normal; font-variant-ligatures: normal; font-variant-caps: normal; letter-spacing: normal; orphans: 2; text-align: center; text-indent: 0px; text-transform: none; widows: 2; word-spacing: 0px; -webkit-text-stroke-width: 0px; text-decoration-thickness: initial; text-decoration-style: initial; text-decoration-color: initial;&quot;&gt;Prompt i&lt;br&gt;&lt;/b&gt;" style="text;whiteSpace=wrap;html=1;labelBackgroundColor=none;" parent="1" vertex="1">
          <mxGeometry x="3194.99" y="410.90999999999985" width="131" height="35.08" as="geometry" />
        </mxCell>
        <mxCell id="LL2xIqkjGdLYfV9IT-Gz-155" value="&lt;b style=&quot;border-color: var(--border-color); color: rgb(0, 0, 0); font-family: &amp;quot;Times New Roman&amp;quot;; font-size: 27px; font-style: normal; font-variant-ligatures: normal; font-variant-caps: normal; letter-spacing: normal; orphans: 2; text-align: center; text-indent: 0px; text-transform: none; widows: 2; word-spacing: 0px; -webkit-text-stroke-width: 0px; text-decoration-thickness: initial; text-decoration-style: initial; text-decoration-color: initial;&quot;&gt;Prompt n&lt;br&gt;&lt;/b&gt;" style="text;whiteSpace=wrap;html=1;labelBackgroundColor=none;" parent="1" vertex="1">
          <mxGeometry x="3194.99" y="480.6299999999999" width="131" height="35.08" as="geometry" />
        </mxCell>
        <mxCell id="LL2xIqkjGdLYfV9IT-Gz-156" value="&lt;b style=&quot;border-color: var(--border-color); color: rgb(0, 0, 0); font-family: &amp;quot;Times New Roman&amp;quot;; font-style: normal; font-variant-ligatures: normal; font-variant-caps: normal; letter-spacing: normal; orphans: 2; text-align: center; text-indent: 0px; text-transform: none; widows: 2; word-spacing: 0px; -webkit-text-stroke-width: 0px; text-decoration-thickness: initial; text-decoration-style: initial; text-decoration-color: initial;&quot;&gt;&lt;font style=&quot;font-size: 25px;&quot;&gt;Prompt Template&lt;/font&gt;&lt;br&gt;&lt;/b&gt;" style="text;whiteSpace=wrap;html=1;labelBackgroundColor=none;" parent="1" vertex="1">
          <mxGeometry x="3150.37" y="239.49" width="220.25" height="35.08" as="geometry" />
        </mxCell>
        <mxCell id="LL2xIqkjGdLYfV9IT-Gz-161" value="&lt;font face=&quot;Times New Roman&quot; style=&quot;font-size: 34px;&quot;&gt;&lt;b style=&quot;font-size: 34px;&quot;&gt;Commit&lt;/b&gt;&lt;/font&gt;" style="text;html=1;strokeColor=none;fillColor=none;align=center;verticalAlign=middle;whiteSpace=wrap;rounded=0;fontSize=34;" parent="1" vertex="1">
          <mxGeometry x="2600" y="469.06999999999994" width="140" height="40" as="geometry" />
        </mxCell>
        <mxCell id="LL2xIqkjGdLYfV9IT-Gz-162" value="" style="shape=image;verticalLabelPosition=bottom;labelBackgroundColor=default;verticalAlign=top;aspect=fixed;imageAspect=0;image=data:image/svg+xml,PHN2ZyB4bWxucz0iaHR0cDovL3d3dy53My5vcmcvMjAwMC9zdmciIHhtbG5zOnhsaW5rPSJodHRwOi8vd3d3LnczLm9yZy8xOTk5L3hsaW5rIiB0PSIxNjgyMDgyNjk1NTUyIiBjbGFzcz0iaWNvbiIgdmlld0JveD0iMCAwIDEwMjQgMTAyNCIgdmVyc2lvbj0iMS4xIiBwLWlkPSIxNDkxMyIgd2lkdGg9IjIwMCIgaGVpZ2h0PSIyMDAiPjxwYXRoIGQ9Ik01MTEuNiA3Ni4zQzI2NC4zIDc2LjIgNjQgMjc2LjQgNjQgNTIzLjUgNjQgNzE4LjkgMTg5LjMgODg1IDM2My44IDk0NmMyMy41IDUuOSAxOS45LTEwLjggMTkuOS0yMi4ydi03Ny41Yy0xMzUuNyAxNS45LTE0MS4yLTczLjktMTUwLjMtODguOUMyMTUgNzI2IDE3MS41IDcxOCAxODQuNSA3MDNjMzAuOS0xNS45IDYyLjQgNCA5OC45IDU3LjkgMjYuNCAzOS4xIDc3LjkgMzIuNSAxMDQgMjYgNS43LTIzLjUgMTcuOS00NC41IDM0LjctNjAuOC0xNDAuNi0yNS4yLTE5OS4yLTExMS0xOTkuMi0yMTMgMC00OS41IDE2LjMtOTUgNDguMy0xMzEuNy0yMC40LTYwLjUgMS45LTExMi4zIDQuOS0xMjAgNTguMS01LjIgMTE4LjUgNDEuNiAxMjMuMiA0NS4zIDMzLTguOSA3MC43LTEzLjYgMTEyLjktMTMuNiA0Mi40IDAgODAuMiA0LjkgMTEzLjUgMTMuOSAxMS4zLTguNiA2Ny4zLTQ4LjggMTIxLjMtNDMuOSAyLjkgNy43IDI0LjcgNTguMyA1LjUgMTE4IDMyLjQgMzYuOCA0OC45IDgyLjcgNDguOSAxMzIuMyAwIDEwMi4yLTU5IDE4OC4xLTIwMCAyMTIuOSAyMy41IDIzLjIgMzguMSA1NS40IDM4LjEgOTF2MTEyLjVjMC44IDkgMCAxNy45IDE1IDE3LjkgMTc3LjEtNTkuNyAzMDQuNi0yMjcgMzA0LjYtNDI0LjEgMC0yNDcuMi0yMDAuNC00NDcuMy00NDcuNS00NDcuM3oiIHAtaWQ9IjE0OTE0IiBmaWxsPSIjMDAwMDAwIi8+PC9zdmc+;" parent="1" vertex="1">
          <mxGeometry x="2616" y="346.0699999999999" width="104" height="104" as="geometry" />
        </mxCell>
        <mxCell id="LL2xIqkjGdLYfV9IT-Gz-163" value="" style="rounded=0;whiteSpace=wrap;html=1;fontFamily=Times New Roman;fontSize=30;strokeWidth=2;noLabel=1;fillColor=#f8cecc;strokeColor=none;" parent="1" vertex="1">
          <mxGeometry x="2860" y="309.99999999999994" width="185" height="71" as="geometry" />
        </mxCell>
        <mxCell id="LL2xIqkjGdLYfV9IT-Gz-164" value="&lt;b style=&quot;border-color: var(--border-color); color: rgb(0, 0, 0); font-family: &amp;quot;Times New Roman&amp;quot;; font-style: normal; font-variant-ligatures: normal; font-variant-caps: normal; letter-spacing: normal; orphans: 2; text-align: center; text-indent: 0px; text-transform: none; widows: 2; word-spacing: 0px; -webkit-text-stroke-width: 0px; text-decoration-thickness: initial; text-decoration-style: initial; text-decoration-color: initial;&quot;&gt;&lt;font style=&quot;font-size: 24px;&quot;&gt;Message&lt;/font&gt;&lt;br&gt;&lt;/b&gt;" style="text;whiteSpace=wrap;html=1;labelBackgroundColor=none;" parent="1" vertex="1">
          <mxGeometry x="2900" y="326.2199999999999" width="110" height="50.78" as="geometry" />
        </mxCell>
        <mxCell id="LL2xIqkjGdLYfV9IT-Gz-165" value="" style="rounded=0;whiteSpace=wrap;html=1;fontFamily=Times New Roman;fontSize=30;strokeWidth=2;noLabel=1;fillColor=#d5e8d4;strokeColor=none;" parent="1" vertex="1">
          <mxGeometry x="2873" y="489.4199999999999" width="190" height="70" as="geometry" />
        </mxCell>
        <mxCell id="LL2xIqkjGdLYfV9IT-Gz-166" value="&lt;b style=&quot;border-color: var(--border-color); color: rgb(0, 0, 0); font-family: &amp;quot;Times New Roman&amp;quot;; font-style: normal; font-variant-ligatures: normal; font-variant-caps: normal; letter-spacing: normal; orphans: 2; text-align: center; text-indent: 0px; text-transform: none; widows: 2; word-spacing: 0px; -webkit-text-stroke-width: 0px; text-decoration-thickness: initial; text-decoration-style: initial; text-decoration-color: initial;&quot;&gt;&lt;font style=&quot;font-size: 24px;&quot;&gt;Code Change Context&lt;/font&gt;&lt;br&gt;&lt;/b&gt;" style="text;whiteSpace=wrap;html=1;labelBackgroundColor=none;" parent="1" vertex="1">
          <mxGeometry x="2893" y="486.57" width="170" height="71.08" as="geometry" />
        </mxCell>
        <mxCell id="LL2xIqkjGdLYfV9IT-Gz-167" value="" style="endArrow=classic;html=1;rounded=0;fontFamily=Times New Roman;fontSize=24;strokeWidth=4;entryX=0;entryY=0.5;entryDx=0;entryDy=0;exitX=0.989;exitY=0.67;exitDx=0;exitDy=0;exitPerimeter=0;" parent="1" source="LL2xIqkjGdLYfV9IT-Gz-162" target="LL2xIqkjGdLYfV9IT-Gz-163" edge="1">
          <mxGeometry width="50" height="50" relative="1" as="geometry">
            <mxPoint x="2738" y="469.0199999999999" as="sourcePoint" />
            <mxPoint x="2968" y="469.72999999999973" as="targetPoint" />
          </mxGeometry>
        </mxCell>
        <mxCell id="LL2xIqkjGdLYfV9IT-Gz-168" value="" style="endArrow=classic;html=1;rounded=0;fontFamily=Times New Roman;fontSize=24;strokeWidth=4;entryX=0;entryY=0.5;entryDx=0;entryDy=0;exitX=1.001;exitY=0.647;exitDx=0;exitDy=0;exitPerimeter=0;" parent="1" source="LL2xIqkjGdLYfV9IT-Gz-162" target="LL2xIqkjGdLYfV9IT-Gz-165" edge="1">
          <mxGeometry width="50" height="50" relative="1" as="geometry">
            <mxPoint x="2748" y="479.0199999999999" as="sourcePoint" />
            <mxPoint x="2888" y="431.6899999999999" as="targetPoint" />
          </mxGeometry>
        </mxCell>
        <mxCell id="LL2xIqkjGdLYfV9IT-Gz-169" value="" style="endArrow=classic;html=1;rounded=0;fontFamily=Times New Roman;fontSize=24;strokeWidth=4;entryX=-0.005;entryY=0.166;entryDx=0;entryDy=0;exitX=1;exitY=0.5;exitDx=0;exitDy=0;entryPerimeter=0;" parent="1" edge="1">
          <mxGeometry width="50" height="50" relative="1" as="geometry">
            <mxPoint x="3058" y="348.0699999999999" as="sourcePoint" />
            <mxPoint x="3171" y="346.0699999999999" as="targetPoint" />
          </mxGeometry>
        </mxCell>
        <mxCell id="LL2xIqkjGdLYfV9IT-Gz-170" value="" style="endArrow=classic;html=1;rounded=0;fontFamily=Times New Roman;fontSize=24;strokeWidth=4;exitX=1;exitY=0.5;exitDx=0;exitDy=0;" parent="1" edge="1">
          <mxGeometry width="50" height="50" relative="1" as="geometry">
            <mxPoint x="3067" y="528.46" as="sourcePoint" />
            <mxPoint x="3167" y="528.5699999999999" as="targetPoint" />
          </mxGeometry>
        </mxCell>
        <mxCell id="LL2xIqkjGdLYfV9IT-Gz-171" value="" style="endArrow=classic;html=1;rounded=0;fontFamily=Times New Roman;fontSize=24;strokeWidth=4;exitX=1;exitY=0.5;exitDx=0;exitDy=0;" parent="1" edge="1">
          <mxGeometry width="50" height="50" relative="1" as="geometry">
            <mxPoint x="3350" y="431.8799999999999" as="sourcePoint" />
            <mxPoint x="3416.5" y="430.1299999999999" as="targetPoint" />
          </mxGeometry>
        </mxCell>
        <mxCell id="LL2xIqkjGdLYfV9IT-Gz-173" value="&lt;font face=&quot;Times New Roman&quot;&gt;&lt;span style=&quot;font-size: 30px;&quot;&gt;&lt;b&gt;Continue fine-tuning&lt;/b&gt;&lt;/span&gt;&lt;/font&gt;" style="text;html=1;strokeColor=none;fillColor=none;align=left;verticalAlign=middle;whiteSpace=wrap;rounded=0;fontSize=34;" parent="1" vertex="1">
          <mxGeometry x="1701.25" y="858.21" width="338.75" height="40" as="geometry" />
        </mxCell>
        <mxCell id="LL2xIqkjGdLYfV9IT-Gz-174" value="&lt;font face=&quot;Times New Roman&quot;&gt;&lt;span style=&quot;font-size: 30px;&quot;&gt;&lt;b&gt;Supervise fine-tuning&lt;/b&gt;&lt;/span&gt;&lt;/font&gt;" style="text;html=1;strokeColor=none;fillColor=none;align=left;verticalAlign=middle;whiteSpace=wrap;rounded=0;fontSize=34;" parent="1" vertex="1">
          <mxGeometry x="3160" y="846.2099999999999" width="374" height="40" as="geometry" />
        </mxCell>
        <mxCell id="hJDmqIVDYr3wz75uPXmU-1" value="" style="shape=curlyBracket;whiteSpace=wrap;html=1;rounded=1;flipH=1;fontFamily=Times New Roman;fontSize=24;strokeWidth=6;rotation=90;" vertex="1" parent="1">
          <mxGeometry x="1822.79" y="130" width="30" height="1373.58" as="geometry" />
        </mxCell>
        <mxCell id="hJDmqIVDYr3wz75uPXmU-2" value="" style="shape=curlyBracket;whiteSpace=wrap;html=1;rounded=1;flipH=1;fontFamily=Times New Roman;fontSize=24;strokeWidth=6;rotation=90;" vertex="1" parent="1">
          <mxGeometry x="3250.9" y="159.1" width="30" height="1315.37" as="geometry" />
        </mxCell>
      </root>
    </mxGraphModel>
  </diagram>
</mxfile>
